name processed_emg_signals
nRows=75
nColumns=7
 
endheader
time	RGLTMED	RRF	RADDLONG	RST	RTA	RGM
2.032	0.0813979750053291	0.0695269097529292	0.5066661829373241	0.0649329036558411	0.3106974439818459	0.0278800868928854
2.033	0.0813137791557953	0.0691882142599805	0.5047153344519019	0.0645588272940188	0.3073502396576713	0.0276553393850816
2.0340000000000003	0.081236083460979	0.0688481127175469	0.5027939475550646	0.0641835582604684	0.3040350503379828	0.0274466152832813
2.035	0.0811652352105053	0.0685070026324234	0.5009028449888007	0.0638071914079184	0.3007516468160096	0.0272541291429494
2.036	0.0811015789124332	0.0681652869089378	0.499042831259922	0.0634298032698954	0.2974998598002	0.027078078155676
2.037	0.0810454555975732	0.0678233732863801	0.4972146921355542	0.0630514520889176	0.294279578587208	0.0269186420307822
2.0380000000000003	0.0809972021340829	0.0674816737758965	0.4954191940928159	0.0626721778959555	0.2910907495590529	0.0267759828857471
2.039	0.0809571505527507	0.0671406040978613	0.4936570837218941	0.0622920026409681	0.2879333745150447	0.0266502451451427
2.04	0.080925627383184	0.0668005831204027	0.4919290870838615	0.0619109303744214	0.2848075088492273	0.0265415554477959
2.041	0.0809029530011408	0.0664620323000028	0.4902359090274071	0.0615289474795013	0.281713259584205	0.0264500225619325
2.0420000000000003	0.0808894409871453	0.0661253751247988	0.4885782324702009	0.0611460229547529	0.2786507832726051	0.0263757373080178
2.043	0.0808853974964546	0.0657910365612741	0.486956717652795	0.0607621087466703	0.2756202837777721	0.0263187724890282
2.044	0.0808911206406542	0.0654594425049701	0.4853720013738711	0.0603771401318486	0.2726220099456111	0.0262791828278497
2.045	0.0809068998810119	0.0651310192357289	0.4838246962161351	0.059991036147966	0.2696562531795868	0.0262570049114731
2.0460000000000003	0.0809330154339512	0.0648061928779789	0.4823153897727794	0.0596037000729848	0.2667233449308265	0.026252257141578
2.047	0.080969737688846	0.0644853888665179	0.4808446438841305	0.0592150199516833	0.2638236541149117	0.0262649396911353
2.048	0.0810173266384529	0.0641690314181736	0.4794129938941963	0.0588248691686699	0.2609575844664568	0.0262950344665487
2.049	0.0810760313222185	0.0638575430095316	0.478020947936452	0.0584331070668945	0.258125571841962	0.0263425050749868
2.05	0.0811460892826603	0.0635513438609693	0.4766689862568752	0.0580395796105848	0.2553280814807944	0.0264072967964702
2.051	0.0812277260350958	0.063250851426847	0.4753575605818658	0.0576441200914469	0.2525656052333636	0.0264893365604713
2.052	0.0813211545508993	0.0629564798918206	0.4740870935368276	0.0572465498768464	0.2498386587648041	0.0265885329267979
2.053	0.0814265747545487	0.062668639672845	0.4728579781214008	0.0568466791985327	0.2471477787416594	0.0267047760706737
2.054	0.08154417303454	0.0623877369265714	0.4716705772457072	0.0564443079805176	0.2444935200083454	0.0268379377719543
2.055	0.0816741217683826	0.0621141730616055	0.4705252233317963	0.0560392267045385	0.2418764527595358	0.0269878714085235
2.056	0.0818165788618024	0.0618483442552244	0.4694222179834079	0.0556312173116278	0.23929715971413	0.0271544119539281
2.057	0.0819716873023193	0.0615906409740757	0.4683618317259087	0.0552200541381638	0.2367562332959148	0.0273373759793437
2.058	0.0821395747274343	0.0613414474987815	0.4673443038182054	0.0548055048848884	0.2342542728257721	0.0275365616599595
2.059	0.0823203530075178	0.0611011414523513	0.4663698421376165	0.0543873316171598	0.2317918817299488	0.027751748785849
2.06	0.082514117843369	0.0608700933328394	0.465438623138716	0.053965291794788	0.2293696647687202	0.0279826987773587
2.061	0.0827209483782876	0.0606486660506482	0.464550791887256	0.0535391393296281	0.2269882252895541	0.028229154705034
2.062	0.0829409068243821	0.0604372144711246	0.4637064621691701	0.0531086256692446	0.2246481625085646	0.0284908413140773
2.063	0.0831740381029118	0.0602360849630105	0.4629057166753483	0.0526735009048781	0.2223500688238367	0.0287674650533789
2.064	0.0834203694984784	0.060045614953283	0.4621486072614094	0.0522335149021888	0.2200945271639708	0.0290587141091982
2.065	0.0836799103271205	0.0598661324889775	0.4614351552826357	0.0517884184533015	0.2178821083752295	0.0293642584436716
2.066	0.0839526516186011	0.0596979558066748	0.4607653520031703	0.0513379644486598	0.2157133686506116	0.0296837498384268
2.067	0.0842385658135375	0.0595413929103408	0.4601391590799197	0.05088190906733	0.2135888470041755	0.0300168219437378
2.068	0.0845376064760182	0.0593967411583546	0.4595565091211064	0.0504200129841889	0.2115090627941392	0.0303630903338002
2.069	0.0848497080226439	0.0592642868605925	0.4590173063198606	0.0499520425924233	0.2094745132983444	0.0307221525687914
2.07	0.0851747854688906	0.0591443048864578	0.458521427162419	0.0494777712397594	0.2074856713459318	0.0310935882645005
2.071	0.0855127341936107	0.0590370582846911	0.458068721210102	0.0489969804765657	0.2055429830091676	0.0314769591703004
2.072	0.0858634297225718	0.0589427979158399	0.4576590119538206	0.0485094613140754	0.2036468653595936	0.0318718092563337
2.073	0.0862267275316509	0.0588617620981524	0.45729209773902	0.0480150154907127	0.2017977042929268	0.0322776648107038
2.074	0.0866024628703074	0.0587941762676122	0.4569677527587897	0.0475134567445924	0.1999958524271866	0.0326940345474868
2.075	0.0869904506057659	0.058740252652766	0.4566857281117274	0.0470046120900781	0.1982416270785554	0.0331204097264121
2.076	0.0873904850881854	0.0587001899647792	0.4564457529198909	0.0464883230963672	0.1965353083191593	0.0335562642849225
2.077	0.0878023400369721	0.0586741731031418	0.4562475355015271	0.0459644471659027	0.1948771371206369	0.0340010549834376
2.078	0.0882257684481446	0.058662372877261	0.4560907645924832	0.045432858810571	0.1932673135868725	0.03445422156455
2.079	0.0886605025225018	0.0586649457440175	0.4559751106094947	0.0448934509235038	0.191705995278762	0.0349151869269591
2.08	0.0891062536142195	0.0586820335613501	0.4559002269490177	0.0443461360444609	0.1901932956334795	0.0353833573150482
2.081	0.0895627121994385	0.0587137633576075	0.4558657513149545	0.0437908476166613	0.1887292824803563	0.0358581225250886
2.082	0.0900295478643544	0.0587602471164712	0.4558713070695485	0.0432275412329596	0.1873139766554908	0.0363388561291549
2.083	0.0905064093125982	0.0588215815772017	0.4559165046014902	0.0426561958691637	0.1859473507172942	0.0368249157179663
2.084	0.0909929243916376	0.0588978480499353	0.4560009427052337	0.0420768151022607	0.1846293277654347	0.0373156431639369
2.085	0.0914887001379179	0.0589891122459482	0.4561242099651912	0.0414894283112763	0.1833597803658394	0.0378103649058332
2.086	0.0919933228406257	0.0590954241225635	0.4562858861375999	0.0408940918583686	0.1821385295844585	0.0383083922564586
2.087	0.0925063581237132	0.0592168177423405	0.4564855435231031	0.0402908902478698	0.1809653441324579	0.0388090217348091
2.088	0.0930273510460016	0.0593533111461711	0.4567227483224822	0.0396799372608415	0.179839939625354	0.0393115354240801
2.089	0.0935558262190749	0.0595049062397476	0.4569970619677352	0.0390613770626742	0.1787619779584076	0.0398152013567864
2.09	0.0940912879427122	0.0596715886930738	0.4573080424207984	0.0384353852814239	0.1777310668005734	0.0403192739282379
2.091	0.0946332203574442	0.0598533278526295	0.457655245430931	0.0378021700544058	0.1767467592091955	0.0408229943394734
2.092	0.0951810876138359	0.0600500766659889	0.4580382257422273	0.037161973040734	0.1758085533675985	0.0413255910707247
2.093	0.0957343340579664	0.0602617716187547	0.4584565382417214	0.036515070397396	0.1749158924475933	0.0418262803863467
2.094	0.0962923844324424	0.060488332683642	0.4589097390385647	0.0358617737165065	0.1740681645985862	0.0423242668720841
2.095	0.0968546440923556	0.0607296632818424	0.4593973864640365	0.0352024309212724	0.1732647030646352	0.0428187440054024
2.096	0.0974204992355087	0.0609856502567208	0.4599190419817438	0.0345374271184044	0.1725047864304091	0.0433088947595083
2.097	0.0979893171464258	0.0612561638601631	0.4604742709971186	0.0338671854045328	0.1717876389966701	0.0437938922416354
2.098	0.0985604464539395	0.0615410577518531	0.4610626435554188	0.033192167624435	0.1711124312856082	0.0442729003660918
2.099	0.0991332174024069	0.0618401690118737	0.4616837349174504	0.0325128750787257	0.17047828067603	0.0447450745624834
2.1	0.0997069421370596	0.0621533181669381	0.4623371260033249	0.031829849178851	0.1698842521680788	0.0452095625195931
2.101	0.100280915004349	0.0624803092306938	0.4630224036948157	0.031143672047101	0.1693293592767207	0.0456655049653199
2.102	0.1008544128685456	0.062820929758348	0.4637391609887876	0.0304549670595174	0.1688125650528592	0.046112036483109
2.103	0.1014266954463622	0.0631749509160475	0.4644869969951184	0.0297643993295136	0.1683327832305817	0.0465482863652699
2.104	0.101997005661481	0.0635421275653254	0.4652655167742061	0.0290726761301341	0.1678888794986138	0.0469733795034682
2.105	0.102564570021202	0.0639221983632155	0.4660743310103901	0.0283805472528804	0.1674796728937736	0.0473864373165784
2.106	0.1031285990174698	0.064314885878518	0.4669130555193463	0.0276888053012236	0.1671039373138675	0.0477865787159905
